<?xml version="1.0" standalone="no"?><!DOCTYPE svg PUBLIC "-//W3C//DTD SVG 1.1//EN" "http://www.w3.org/Graphics/SVG/1.1/DTD/svg11.dtd"><svg class="icon" width="200px" height="200.00px" viewBox="0 0 1024 1024" version="1.1" xmlns="http://www.w3.org/2000/svg"><path fill="#d81e06" d="M138.810168 1.355247 887.767126 1.355247C935.770569 1.355247 970.014641 44.263836 964.161757 97.154884L880.726228 768.057404C876.918082 795.734976 855.077257 829.843745 831.901246 844.243129L556.410399 1012.079181C532.31654 1026.477824 492.976781 1026.74818 468.704168 1012.701041L182.143454 843.621268C158.787799 829.566069 137.175903 795.687362 133.827936 767.923264L61.050454 97.431302C55.953153 44.369962 90.807363 1.355247 138.810168 1.355247ZM299.136313 465.258955C301.593143 493.176861 326.315308 515.808794 354.356714 515.808794L625.070643 515.808794C645.798744 515.808794 660.119929 532.418765 657.053798 552.935702L644.644043 635.975212C641.579752 656.479837 624.246819 680.960744 605.935133 690.652054L519.301897 736.501996C507.454159 742.772314 488.942784 741.661177 477.916868 733.993278L395.751033 676.851591C383.738847 668.497794 374.001044 649.881825 374.001044 635.2329L374.001044 610.306882C374.001044 607.860833 372.035922 605.877919 369.582519 605.877919L318.330072 605.877919C315.88979 605.877919 313.911548 607.843734 313.911548 610.294433L313.91155 684.456918C313.91155 694.204665 320.731191 706.128911 329.120468 711.076796L444.616278 779.194726C474.016269 796.53446 522.393291 797.780875 552.63142 781.998486L635.699566 738.642169C665.95469 722.850911 695.847448 682.907085 702.467809 649.420595L727.351104 523.558252C734.681465 486.480505 709.996429 456.423053 672.202397 456.423053L420.341162 456.423053C394.74822 456.423053 371.949793 435.768744 369.420127 410.297154L360.628846 321.77643C358.942477 304.796122 371.389402 291.030861 388.464671 291.030861L757.901169 291.030863C770.094857 291.030863 782.551192 281.511545 785.72939 269.745849L790.489891 252.122467C798.756604 221.519095 779.748844 197.058519 748.0877 197.487525L346.766788 202.925401C307.757742 203.453972 278.905069 235.36363 282.324954 274.225099L299.136313 465.258955Z" /></svg>